<mxfile host="app.diagrams.net" modified="2023-09-27T02:40:36.323Z" agent="Mozilla/5.0 (Macintosh; Intel Mac OS X 10_15_7) AppleWebKit/537.36 (KHTML, like Gecko) Chrome/116.0.0.0 Safari/537.36" version="21.7.5" etag="O9nqYvt_x_pNbUM963wU" type="github">
  <diagram name="페이지-1" id="ny87r36JiW6vDzk13kr_">
    <mxGraphModel>
      <root>
        <mxCell id="0" />
        <mxCell id="1" parent="0" />
      </root>
    </mxGraphModel>
  </diagram>
</mxfile>
